<?xml version="1.0" encoding="UTF-8"?>
<svg width="170px" height="52px" viewBox="0 0 170 52" version="1.1" xmlns="http://www.w3.org/2000/svg" xmlns:xlink="http://www.w3.org/1999/xlink">
    <!-- Generator: Sketch 44.1 (41455) - http://www.bohemiancoding.com/sketch -->
    <title>nearform-logotype</title>
    <desc>Created with Sketch.</desc>
    <defs></defs>
    <g id="Assets" stroke="none" stroke-width="1" fill="none" fill-rule="evenodd">
        <g id="nearform-logotype">
            <g id="nearform-logo">
                <g id="nearform-colour">
                    <path d="M45.6659142,8.54014599 C45.2183796,10.8122821 43.6953157,12.7338221 41.5713318,13.7059854 C40.8039861,14.188645 40.3282637,15.0159891 40.3011287,15.9150365 L40.3011287,35.2727007 C40.3358365,36.2767939 40.9255127,37.180824 41.8361174,37.6259854 C44.0221884,38.7319547 45.4958996,40.8548823 45.7541761,43.270073 C54.7205624,33.3790982 54.6824603,18.3864108 45.6659142,8.54014599 L45.6659142,8.54014599 Z" id="Shape" fill="#ED1828" fill-rule="nonzero"></path>
                    <path d="M10.1884876,37.550073 L10.1693002,37.550073 C11.0760155,37.150467 11.6543046,36.2544112 11.6390519,35.2727007 L11.6390519,26.4668613 C11.7166639,25.5312831 11.229209,24.6384336 10.3957111,24.1894891 L10.2153499,24.0983942 L10.1731377,24.0794161 L10.1731377,24.0794161 C7.0368074,22.4553821 5.55744937,18.8187208 6.68261102,15.4987594 C7.80777266,12.178798 11.2042366,10.1587453 14.696525,10.7324704 C18.1888134,11.3061955 20.7426828,14.3037894 20.7223476,17.8052555 C20.7142843,18.7136186 20.5427585,19.6133051 20.2158014,20.4621898 L20.2158014,20.4621898 C20.0084736,21.3362362 20.2415349,22.2554857 20.8413093,22.9293431 L33.8042889,35.9521168 L33.8042889,35.9521168 C35.1589165,37.3109489 36.6363431,36.7871533 36.6363431,35.2613139 L36.6363431,15.9036496 C36.6597745,15.0016492 36.2059668,14.1528463 35.4390519,13.6642336 C35.3776524,13.6338686 35.36614,13.6035036 35.3047404,13.5731387 C35.2907985,13.570475 35.2764701,13.570475 35.2625282,13.5731387 L35.2625282,13.5731387 C32.8894609,12.3165851 31.4042327,9.8740306 31.3943567,7.21167883 C31.399474,4.85960881 32.5748824,2.66076754 34.537246,1.33226277 C23.3390411,-2.35411057 11.0305943,1.80990695 4.46061354,11.5073585 C-2.10936727,21.2048101 -1.32318278,34.0479321 6.38171558,42.8905109 C6.73944695,40.620692 8.1471683,38.6458302 10.1884876,37.550073 Z" id="Shape" fill="#ED1828" fill-rule="nonzero"></path>
                    <path d="M38.6164786,10.7226277 C40.5690434,10.7226175 42.1524959,9.15811806 42.1546067,7.22684897 C42.1567176,5.29557988 40.5766888,3.72769777 38.6241285,3.72351187 C36.6715683,3.71932597 35.0846828,5.28041884 35.0783296,7.21167883 C35.0762921,8.1414843 35.4480381,9.0339528 36.1116803,9.69249314 C36.7753225,10.3510335 37.6764192,10.7216225 38.6164786,10.7226277 L38.6164786,10.7226277 Z" id="Shape" fill="#ED1828" fill-rule="nonzero"></path>
                    <path d="M35.0783296,43.9608759 C35.0783296,45.8936307 36.6624128,47.460438 38.6164786,47.460438 C40.5705443,47.460438 42.1546275,45.8936307 42.1546275,43.9608759 C42.1546275,42.0281212 40.5705443,40.4613139 38.6164786,40.4613139 C36.6632896,40.4634058 35.0804446,42.0289883 35.0783296,43.9608759 L35.0783296,43.9608759 Z" id="Shape" fill="#797A7C" fill-rule="nonzero"></path>
                    <path d="M31.4020316,43.9191241 C31.4012862,43.0549945 31.5612859,42.1981033 31.8740406,41.3912409 L31.8740406,41.3912409 C32.2501977,40.4081117 32.0049794,39.2980637 31.2485327,38.559708 L31.2485327,38.559708 L18.227991,25.4306569 C17.0191874,24.2616058 15.3153499,24.44 15.3153499,26.4554745 L15.3153499,35.2613139 C15.3288969,36.2548807 15.8956458,37.1599644 16.7889391,37.6145985 C19.1709484,38.8135637 20.6847839,41.2196631 20.7202129,43.8629891 C20.7556419,46.5063152 19.3068258,48.9512621 16.9577878,50.2122628 C22.8722125,52.4136046 29.3900009,52.4365083 35.3200903,50.2767883 C32.91736,49.0463163 31.4068639,46.5952996 31.4020316,43.9191241 Z" id="Shape" fill="#ED1828" fill-rule="nonzero"></path>
                    <path d="M13.5232506,40.4613139 C11.5691848,40.4613139 9.98510158,42.0281212 9.98510158,43.9608759 C9.98510158,45.8936307 11.5691848,47.460438 13.5232506,47.460438 C15.4773163,47.460438 17.0613995,45.8936307 17.0613995,43.9608759 C17.0592846,42.0289883 15.4764396,40.4634058 13.5232506,40.4613139 L13.5232506,40.4613139 Z" id="Shape" fill="#ED1828" fill-rule="nonzero"></path>
                    <path d="M17.0613995,17.7748905 C17.0613995,15.8421358 15.4773163,14.2753285 13.5232506,14.2753285 C11.5691848,14.2753285 9.98510158,15.8421358 9.98510158,17.7748905 C9.98510158,19.7076453 11.5691848,21.2744526 13.5232506,21.2744526 C15.4764396,21.2723606 17.0592846,19.7067781 17.0613995,17.7748905 L17.0613995,17.7748905 Z" id="Shape" fill="#797A7C" fill-rule="nonzero"></path>
                    <path d="M67.0905192,33.0218978 L67.0905192,24.6715328 C67.0905192,21.2225791 65.8331076,19.4981022 63.3182844,19.4981022 C61.9940075,19.4608289 60.7239901,20.0191252 59.8645598,21.0163504 C58.9553998,22.0607132 58.4748302,23.4040918 58.5176072,24.7816058 L58.5176072,33.0218978 L57.2128668,33.0218978 L57.2128668,18.6630657 L58.5176072,18.6630657 L58.5176072,21.2554745 L58.5751693,21.2554745 C59.4795553,19.374034 61.4325883,18.2087192 63.5370203,18.2948905 C65.1052671,18.2948905 66.3051166,18.8110949 67.1365688,19.8435036 C67.9680211,20.8759124 68.3863055,22.3587348 68.3914221,24.2919708 L68.3914221,33.0218978 L67.0905192,33.0218978 Z" id="Shape" fill="#797A7C" fill-rule="nonzero"></path>
                    <path d="M73.0731377,25.9013139 C73.0731377,27.8750365 73.5336343,29.4173236 74.4546275,30.5281752 C75.3821959,31.6441251 76.7869161,32.2628864 78.2460497,32.1982482 C79.8705794,32.1982482 81.4580135,31.6048662 83.0083521,30.4181022 L83.0083521,31.7921168 C81.5430345,32.8359759 79.7793335,33.390429 77.9735892,33.3748905 C76.2330068,33.4321113 74.5617524,32.6978985 73.4376975,31.3821898 C72.2838977,30.0537226 71.7069977,28.1786861 71.7069977,25.7570803 C71.6471501,23.8347118 72.288722,21.9552385 73.514447,20.4621898 C74.6546308,19.0567934 76.3942428,18.260383 78.2153499,18.310073 C80.0215199,18.310073 81.4068473,18.9426764 82.3713318,20.2078832 C83.3358164,21.47309 83.8180587,23.1836496 83.8180587,25.339562 L83.8180587,25.9164964 L73.0731377,25.9013139 Z M82.4595937,24.7246715 C82.4033108,23.069781 82.0016554,21.7843309 81.2546275,20.8683212 C80.5042927,19.9506295 79.3574692,19.4405395 78.1654628,19.4943066 C76.8964645,19.4581242 75.6702131,19.9496082 74.7846501,20.8493431 C73.8917983,21.7527007 73.3417607,23.0457421 73.1345372,24.7284672 L82.4595937,24.7246715 Z" id="Shape" fill="#797A7C" fill-rule="nonzero"></path>
                    <path d="M96.0979684,33.0218978 L96.0979684,30.1524088 L96.0404063,30.1524088 C95.6004599,31.1054305 94.9000015,31.9178827 94.0180587,32.4981022 C93.1492226,33.0781649 92.1229196,33.3838891 91.0747178,33.3748905 C89.8725324,33.4425817 88.6927869,33.032671 87.7975169,32.2362044 C86.9986045,31.4805372 86.5607685,30.4254683 86.5925508,29.3325547 C86.5925508,26.8274453 88.2708051,25.3091971 91.6273138,24.7778102 L96.0941309,24.1173723 C96.0941309,21.0327981 94.9224229,19.4905109 92.5790068,19.4905109 C90.9826185,19.4905109 89.4271633,20.1231144 87.9126411,21.3883212 L87.9126411,19.8321168 C88.574375,19.3490383 89.3157426,18.9830393 90.1038375,18.750365 C90.9416771,18.465822 91.8198759,18.314646 92.7056433,18.3024818 C94.199699,18.3024818 95.3509406,18.7604866 96.1593679,19.6764964 C96.9677953,20.5925061 97.3771257,21.9247689 97.3873589,23.6732847 L97.3873589,33.0218978 L96.0979684,33.0218978 Z M92.0993228,25.8747445 C90.5771257,26.0898297 89.5090293,26.4377616 88.8950339,26.9185401 C88.2810384,27.3993187 87.9740406,28.1824818 87.9740406,29.2680292 C87.9494599,30.0572225 88.2613951,30.8202913 88.8336343,31.3708029 C89.4862277,31.9523829 90.3475534,32.2504907 91.2243792,32.1982482 C92.5575895,32.2306518 93.8361475,31.6741659 94.7126411,30.68 C95.6665847,29.5809278 96.1630917,28.1646293 96.1018059,26.7173723 L96.1018059,25.3129927 L92.0993228,25.8747445 Z" id="Shape" fill="#797A7C" fill-rule="nonzero"></path>
                    <path d="M108.600451,20.0105109 C108.152326,19.6971497 107.614121,19.5347874 107.065463,19.5474453 C105.921896,19.5474453 104.962528,20.1319708 104.187359,21.3010219 C103.41219,22.470073 103.028442,24.1300243 103.036117,26.2808759 L103.036117,33.0218978 L101.769752,33.0218978 L101.769752,18.6630657 L103.04763,18.6630657 L103.04763,21.8475912 L103.105192,21.8475912 C103.367739,20.8641403 103.914508,19.9777473 104.678555,19.2969343 C105.368265,18.6998995 106.256428,18.3755389 107.172912,18.3859854 C107.66716,18.3784541 108.158279,18.4647833 108.619639,18.640292 L108.600451,20.0105109 Z" id="Shape" fill="#797A7C" fill-rule="nonzero"></path>
                    <polygon id="Shape" fill="#ED1828" fill-rule="nonzero" points="113.044244 14.1918248 113.044244 22.3941606 120.558014 22.3941606 120.558014 23.6581022 113.044244 23.6581022 113.044244 33.0218978 111.639729 33.0218978 111.639729 12.9051095 121.137472 12.9051095 121.137472 14.180438"></polygon>
                    <path d="M130.681264,33.3748905 C128.56298,33.3748905 126.887284,32.6853528 125.654176,31.3062774 C124.421068,29.9272019 123.804515,28.1344039 123.804515,25.9278832 C123.804515,23.5442336 124.444093,21.6793187 125.723251,20.3331387 C127.002408,18.9869586 128.701129,18.3138686 130.819413,18.3138686 C132.88909,18.3138686 134.523853,18.9818978 135.723702,20.3179562 C136.923552,21.6540146 137.523476,23.5050122 137.523476,25.8709489 C137.523476,28.1053041 136.91076,29.9145499 135.685327,31.2986861 C134.459895,32.6828224 132.791874,33.3748905 130.681264,33.3748905 Z M130.781038,19.4905109 C129.226664,19.4241148 127.724522,20.0527055 126.690293,21.2023358 C125.666968,22.3435523 125.155305,23.9288564 125.155305,25.9582482 C125.155305,27.8383455 125.651618,29.3477372 126.644244,30.4864234 C127.63687,31.6251095 128.994056,32.1957178 130.715801,32.1982482 C132.46313,32.1982482 133.810083,31.6377616 134.756659,30.5167883 C135.703236,29.3958151 136.176524,27.8396107 136.176524,25.8481752 C136.176524,23.8010706 135.705794,22.2309489 134.764334,21.1378102 C133.822874,20.0446715 132.495109,19.4955718 130.781038,19.4905109 Z" id="Shape" fill="#ED1828" fill-rule="nonzero"></path>
                    <path d="M147.992099,20.0105109 C147.543974,19.6971497 147.005769,19.5347874 146.457111,19.5474453 C145.313544,19.5474453 144.354176,20.1319708 143.579007,21.3010219 C142.803837,22.470073 142.42009,24.1300243 142.427765,26.2808759 L142.427765,33.0218978 L141.149887,33.0218978 L141.149887,18.6630657 L142.427765,18.6630657 L142.427765,21.8475912 L142.485327,21.8475912 C142.748081,20.8642275 143.294816,19.9778892 144.058691,19.2969343 C144.748588,18.7002115 145.636626,18.3758966 146.553047,18.3859854 C147.047295,18.3784541 147.538415,18.4647833 147.999774,18.640292 L147.992099,20.0105109 Z" id="Shape" fill="#ED1828" fill-rule="nonzero"></path>
                    <path d="M168.653047,33.0218978 L168.653047,24.3868613 C168.653047,22.5826764 168.367795,21.3174696 167.797291,20.5912409 C167.226787,19.8650122 166.321144,19.5006326 165.080361,19.4981022 C163.918621,19.5067956 162.825737,20.0444781 162.117833,20.9556204 C161.266185,21.9847455 160.822808,23.2855278 160.870655,24.6145985 L160.870655,33.0218978 L159.565914,33.0218978 L159.565914,24.2919708 C159.565914,21.093528 158.336644,19.4943066 155.878104,19.4943066 C154.713366,19.4844665 153.615044,20.0297577 152.927088,20.9594161 C152.103867,22.0525219 151.687695,23.3933475 151.748984,24.7550365 L151.748984,33.0218978 L150.428894,33.0218978 L150.428894,18.6630657 L151.733634,18.6630657 L151.733634,21.0467153 L151.791196,21.0467153 C152.814522,19.2248175 154.294507,18.3126034 156.231151,18.310073 C157.214937,18.2852166 158.175929,18.6051908 158.944244,19.2134307 C159.703076,19.819673 160.241863,20.6536776 160.479233,21.5894891 C160.881495,20.6155042 161.558134,19.7762955 162.428668,19.1716788 C163.236009,18.6088501 164.200089,18.3077941 165.18781,18.310073 C168.365237,18.310073 169.95395,20.2546959 169.95395,24.1439416 L169.95395,33.0218978 L168.653047,33.0218978 Z" id="Shape" fill="#ED1828" fill-rule="nonzero"></path>
                </g>
            </g>
        </g>
    </g>
</svg>